<svg width="1296" height="135" viewBox="0 0 1296 135" fill="none" xmlns="http://www.w3.org/2000/svg">
<path d="M100.014 44.083V40.165H112.575V27.7773H116.954V40.165H129.514V44.083H116.954V56.9316H112.575V44.083H100.014ZM137.12 30.4854V26.9707H138.848C142.152 26.9707 144.399 26.4714 145.589 25.4727C146.78 24.474 147.375 23.0335 147.375 21.1514V19.8262H151.293V64.0762H146.569V30.4854H137.12ZM166.965 30.082C167.81 26.7402 169.328 24.109 171.517 22.1885C173.745 20.2679 176.645 19.3076 180.217 19.3076C183.905 19.3076 186.92 20.3639 189.263 22.4766C191.606 24.5892 192.778 27.5085 192.778 31.2344C192.778 35.5365 190.55 39.8193 186.094 44.083C180.947 48.9997 177.701 52.2454 176.357 53.8203C174.628 55.8561 173.418 57.8151 172.727 59.6973H192.778V63.5H167.196C167.196 62.0404 167.503 60.5231 168.118 58.9482C168.771 57.335 169.462 55.9521 170.192 54.7998C170.922 53.6475 172.132 52.1686 173.822 50.3633C175.512 48.5195 176.799 47.1751 177.682 46.3301C178.604 45.4466 180.179 43.9678 182.407 41.8936C186.171 38.3213 188.053 34.749 188.053 31.1768C188.053 28.6032 187.323 26.6058 185.864 25.1846C184.443 23.7633 182.522 23.0527 180.102 23.0527C177.721 23.0527 175.762 23.7826 174.225 25.2422C172.689 26.7018 171.613 28.68 170.999 31.1768L166.965 30.082ZM201.824 63.5V18.7314H206.318V48.0586L219.8 32.502H225.677L214.615 44.8896L226.945 63.5H221.529L211.734 48.001L206.318 54.0508V63.5H201.824Z" fill="#333333"/>
<path d="M92.5557 117.5V103.596H94.9814L99.1826 111.242L100.729 114.055H100.817C100.642 112.824 100.554 111.488 100.554 110.047V103.596H102.874V117.5H100.448L96.2471 109.994L94.7002 107.094H94.6123C94.7881 108.465 94.876 109.801 94.876 111.102V117.5H92.5557ZM105.757 105.846V103.402H108.147V105.846H105.757ZM105.862 117.5V107.357H108.06V117.5H105.862ZM110.802 117.5V103.139H112.999V108.5C113.269 108.102 113.626 107.762 114.071 107.48C114.528 107.188 115.044 107.041 115.618 107.041C116.86 107.041 117.886 107.521 118.694 108.482C119.503 109.432 119.907 110.744 119.907 112.42C119.907 113.182 119.819 113.873 119.644 114.494C119.468 115.115 119.239 115.631 118.958 116.041C118.677 116.439 118.343 116.779 117.956 117.061C117.581 117.33 117.2 117.523 116.813 117.641C116.427 117.758 116.034 117.816 115.636 117.816C115.038 117.816 114.493 117.658 114.001 117.342C113.521 117.014 113.175 116.633 112.964 116.199V117.5H110.802ZM112.981 112.42C112.981 113.498 113.192 114.354 113.614 114.986C114.048 115.607 114.61 115.918 115.302 115.918C115.981 115.918 116.538 115.619 116.972 115.021C117.405 114.424 117.622 113.557 117.622 112.42C117.622 111.354 117.411 110.51 116.989 109.889C116.579 109.256 116.017 108.939 115.302 108.939C114.599 108.939 114.036 109.262 113.614 109.906C113.192 110.539 112.981 111.377 112.981 112.42ZM121.858 117.5V103.139H124.056V108.395H124.108C124.378 108.008 124.747 107.686 125.216 107.428C125.696 107.17 126.2 107.041 126.728 107.041C127.7 107.041 128.509 107.357 129.153 107.99C129.798 108.611 130.12 109.607 130.12 110.979V117.5H127.905V111.26C127.905 109.713 127.378 108.939 126.323 108.939C125.679 108.939 125.14 109.215 124.706 109.766C124.272 110.316 124.056 110.961 124.056 111.699V117.5H121.858ZM137.169 117.5V103.596H146.292V105.582H139.489V109.344H145.624V111.295H139.489V115.531H146.468V117.5H137.169ZM148.419 117.5V103.139H150.634V117.5H148.419ZM153.358 105.846V103.402H155.749V105.846H153.358ZM153.464 117.5V107.357H155.661V117.5H153.464ZM157.401 109.256V107.357H158.966V104.352H161.181V107.357H163.501V109.256H161.181V114.248C161.181 114.729 161.274 115.074 161.462 115.285C161.661 115.496 161.96 115.602 162.358 115.602H163.519V117.5H162.077C160.003 117.5 158.966 116.469 158.966 114.406V109.256H157.401ZM168.634 105.582V103.596H178.97V105.582H174.962V117.5H172.642V105.582H168.634ZM179.532 117.5V107.357H181.677V108.447C181.899 108.072 182.216 107.744 182.626 107.463C183.048 107.182 183.546 107.041 184.12 107.041C184.659 107.041 185.099 107.117 185.438 107.27V109.291C184.993 109.15 184.554 109.08 184.12 109.08C183.358 109.08 182.772 109.379 182.362 109.977C181.964 110.562 181.765 111.348 181.765 112.332V117.5H179.532ZM186.722 105.846V103.402H189.112V105.846H186.722ZM186.827 117.5V107.357H189.024V117.5H186.827ZM190.905 115.391L192.505 114.459C193.208 115.49 194.122 116.006 195.247 116.006C195.798 116.006 196.231 115.9 196.548 115.689C196.876 115.467 197.04 115.174 197.04 114.811C197.04 114.518 196.905 114.26 196.636 114.037C196.378 113.814 196.103 113.65 195.81 113.545C195.517 113.428 195.077 113.275 194.491 113.088C194.386 113.053 194.31 113.029 194.263 113.018C193.841 112.877 193.483 112.742 193.19 112.613C192.909 112.473 192.61 112.291 192.294 112.068C191.978 111.834 191.737 111.547 191.573 111.207C191.409 110.855 191.327 110.451 191.327 109.994C191.327 109.104 191.702 108.389 192.452 107.85C193.202 107.311 194.134 107.041 195.247 107.041C196.079 107.041 196.864 107.264 197.603 107.709C198.341 108.143 198.892 108.699 199.255 109.379L197.778 110.275C197.087 109.326 196.249 108.852 195.265 108.852C194.726 108.852 194.31 108.963 194.017 109.186C193.735 109.396 193.595 109.678 193.595 110.029C193.595 110.322 193.718 110.586 193.964 110.82C194.222 111.043 194.485 111.207 194.755 111.312C195.024 111.418 195.405 111.553 195.897 111.717C196.026 111.752 196.12 111.781 196.179 111.805C198.265 112.473 199.308 113.48 199.308 114.828C199.308 115.66 198.956 116.369 198.253 116.955C197.562 117.529 196.577 117.816 195.3 117.816C194.315 117.816 193.437 117.6 192.663 117.166C191.901 116.732 191.315 116.141 190.905 115.391ZM200.151 109.256V107.357H201.716V104.352H203.931V107.357H206.251V109.256H203.931V114.248C203.931 114.729 204.024 115.074 204.212 115.285C204.411 115.496 204.71 115.602 205.108 115.602H206.269V117.5H204.827C202.753 117.5 201.716 116.469 201.716 114.406V109.256H200.151ZM208.132 105.846V103.402H210.522V105.846H208.132ZM208.237 117.5V107.357H210.435V117.5H208.237ZM214.776 112.42C214.776 113.521 214.987 114.383 215.409 115.004C215.831 115.613 216.394 115.918 217.097 115.918C217.8 115.918 218.362 115.607 218.784 114.986C219.206 114.354 219.417 113.498 219.417 112.42C219.417 111.389 219.212 110.551 218.802 109.906C218.392 109.262 217.829 108.939 217.114 108.939C216.376 108.939 215.802 109.262 215.392 109.906C214.981 110.551 214.776 111.389 214.776 112.42ZM212.491 112.42C212.491 110.768 212.896 109.461 213.704 108.5C214.513 107.527 215.544 107.041 216.798 107.041C217.384 107.041 217.905 107.199 218.362 107.516C218.819 107.82 219.183 108.207 219.452 108.676V107.357H221.597V121.648H219.382V116.305C219.159 116.727 218.825 117.084 218.38 117.377C217.935 117.67 217.407 117.816 216.798 117.816C216.282 117.816 215.778 117.711 215.286 117.5C214.794 117.301 214.331 116.996 213.897 116.586C213.476 116.176 213.136 115.613 212.878 114.898C212.62 114.172 212.491 113.346 212.491 112.42ZM223.987 113.826V107.357H226.22V113.545C226.22 115.127 226.776 115.918 227.89 115.918C228.558 115.918 229.079 115.637 229.454 115.074C229.829 114.5 230.017 113.82 230.017 113.035V107.357H232.231V117.5H230.087V116.322H230.069C229.905 116.686 229.589 117.025 229.12 117.342C228.663 117.658 228.089 117.816 227.397 117.816C226.987 117.816 226.595 117.752 226.22 117.623C225.856 117.506 225.499 117.312 225.147 117.043C224.796 116.762 224.515 116.346 224.304 115.795C224.093 115.244 223.987 114.588 223.987 113.826ZM234.077 112.385C234.077 110.756 234.522 109.461 235.413 108.5C236.315 107.527 237.446 107.041 238.806 107.041C240.142 107.041 241.243 107.527 242.11 108.5C242.978 109.473 243.411 110.738 243.411 112.297C243.411 112.602 243.394 112.9 243.358 113.193H236.327C236.327 113.967 236.556 114.635 237.013 115.197C237.481 115.748 238.12 116.023 238.929 116.023C239.491 116.023 239.983 115.889 240.405 115.619C240.839 115.338 241.167 114.98 241.39 114.547L243.253 115.18C242.925 115.93 242.392 116.557 241.653 117.061C240.915 117.564 239.995 117.816 238.894 117.816C237.476 117.816 236.315 117.324 235.413 116.34C234.522 115.355 234.077 114.037 234.077 112.385ZM236.362 111.629H241.144C241.144 110.855 240.938 110.199 240.528 109.66C240.118 109.109 239.544 108.834 238.806 108.834C238.067 108.834 237.476 109.115 237.03 109.678C236.597 110.229 236.374 110.879 236.362 111.629Z" fill="black"/>
<path d="M752.873 56.0674L756.675 54.5693C758.826 58.6794 762.053 60.7344 766.355 60.7344C769.044 60.7344 771.291 59.9469 773.096 58.3721C774.902 56.7972 775.804 54.5117 775.804 51.5156C775.804 48.7116 774.806 46.5413 772.808 45.0049C770.811 43.43 768.391 42.6426 765.548 42.6426C764.127 42.6426 762.975 42.681 762.091 42.7578V38.9551C762.898 39.0319 763.973 39.0703 765.318 39.0703C767.853 39.0703 769.946 38.3405 771.598 36.8809C773.25 35.3828 774.076 33.3662 774.076 30.8311C774.076 28.5648 773.327 26.7018 771.829 25.2422C770.369 23.7826 768.468 23.0527 766.125 23.0527C762.437 23.0527 759.671 25.2422 757.828 29.6211L754.025 28.3535C754.908 25.7031 756.387 23.5329 758.461 21.8428C760.536 20.1527 763.167 19.3076 766.355 19.3076C770.158 19.3076 773.173 20.3639 775.401 22.4766C777.667 24.5892 778.8 27.2396 778.8 30.4277C778.8 32.9245 778.128 35.0563 776.784 36.8232C775.439 38.5902 773.807 39.8385 771.886 40.5684C774.191 41.1829 776.208 42.4121 777.936 44.2559C779.665 46.0996 780.529 48.5195 780.529 51.5156C780.529 55.6641 779.223 58.8714 776.611 61.1377C774.037 63.404 770.619 64.5371 766.355 64.5371C763.013 64.5371 760.171 63.7305 757.828 62.1172C755.523 60.5039 753.871 58.4873 752.873 56.0674ZM786.348 73.5254L791.073 56.6436H797.468L789.978 73.5254H786.348ZM811.354 41.9512C811.354 47.7129 812.084 52.2839 813.543 55.6641C815.003 59.0443 817.231 60.7344 820.227 60.7344C821.84 60.7344 823.223 60.235 824.375 59.2363C825.528 58.1992 826.411 56.778 827.026 54.9727C827.679 53.1673 828.14 51.2083 828.409 49.0957C828.716 46.9447 828.87 44.5632 828.87 41.9512C828.87 36.1895 828.14 31.5993 826.68 28.1807C825.259 24.762 823.069 23.0527 820.112 23.0527C817.193 23.0527 815.003 24.7428 813.543 28.123C812.084 31.5033 811.354 36.1126 811.354 41.9512ZM806.629 41.9512C806.629 34.1152 807.916 28.3919 810.49 24.7812C813.063 21.1322 816.271 19.3076 820.112 19.3076C824.337 19.3076 827.64 21.2474 830.022 25.127C832.403 29.0065 833.594 34.6146 833.594 41.9512C833.594 46.3301 833.133 50.1712 832.211 53.4746C831.328 56.778 829.868 59.4476 827.833 61.4834C825.797 63.5192 823.262 64.5371 820.227 64.5371C816.347 64.5371 813.102 62.6742 810.49 58.9482C807.916 55.2223 806.629 49.5566 806.629 41.9512ZM838.953 24.2627V20.3447H865.572V23.5137C858.005 35.9206 852.589 49.4414 849.324 64.0762H844.599C846.174 56.4707 848.248 49.5566 850.822 43.334C853.434 37.0729 856.583 30.7158 860.271 24.2627H838.953Z" fill="#333333"/>
<path d="M746.876 110.557C746.876 108.354 747.421 106.59 748.511 105.266C749.612 103.941 751.06 103.279 752.853 103.279C754.646 103.279 756.087 103.947 757.177 105.283C758.267 106.619 758.812 108.377 758.812 110.557C758.812 112.725 758.267 114.477 757.177 115.812C756.099 117.148 754.657 117.816 752.853 117.816C751.048 117.816 749.601 117.148 748.511 115.812C747.421 114.477 746.876 112.725 746.876 110.557ZM749.267 110.557C749.267 112.186 749.583 113.475 750.216 114.424C750.86 115.361 751.739 115.83 752.853 115.83C753.966 115.83 754.839 115.361 755.472 114.424C756.104 113.475 756.421 112.186 756.421 110.557C756.421 108.904 756.104 107.609 755.472 106.672C754.839 105.734 753.966 105.266 752.853 105.266C751.739 105.266 750.86 105.74 750.216 106.689C749.583 107.639 749.267 108.928 749.267 110.557ZM752.325 113.123L753.644 111.928L758.812 117.289L757.493 118.467L752.325 113.123ZM760.64 113.826V107.357H762.872V113.545C762.872 115.127 763.429 115.918 764.542 115.918C765.21 115.918 765.731 115.637 766.106 115.074C766.481 114.5 766.669 113.82 766.669 113.035V107.357H768.884V117.5H766.739V116.322H766.722C766.558 116.686 766.241 117.025 765.772 117.342C765.315 117.658 764.741 117.816 764.05 117.816C763.64 117.816 763.247 117.752 762.872 117.623C762.509 117.506 762.151 117.312 761.8 117.043C761.448 116.762 761.167 116.346 760.956 115.795C760.745 115.244 760.64 114.588 760.64 113.826ZM772.962 114.652C772.962 115.027 773.108 115.344 773.401 115.602C773.706 115.848 774.104 115.971 774.597 115.971C775.3 115.971 775.897 115.736 776.39 115.268C776.894 114.799 777.146 114.184 777.146 113.422V112.49C776.606 112.619 775.956 112.742 775.194 112.859C773.706 113.094 772.962 113.691 772.962 114.652ZM770.712 114.846C770.712 112.936 772.13 111.77 774.966 111.348C775.997 111.195 776.724 111.055 777.146 110.926V110.381C777.146 109.889 776.97 109.502 776.618 109.221C776.267 108.939 775.798 108.799 775.212 108.799C774.099 108.799 773.138 109.256 772.329 110.17L770.976 109.01C771.503 108.389 772.13 107.908 772.856 107.568C773.595 107.217 774.368 107.041 775.177 107.041C776.688 107.041 777.767 107.41 778.411 108.148C779.056 108.875 779.378 109.895 779.378 111.207V117.5H777.216V116.234C777.005 116.668 776.636 117.043 776.108 117.359C775.593 117.664 774.983 117.816 774.28 117.816C773.167 117.816 772.294 117.541 771.661 116.99C771.028 116.439 770.712 115.725 770.712 114.846ZM781.663 117.5V107.357H783.825V108.535C784.001 108.195 784.317 107.861 784.774 107.533C785.231 107.205 785.782 107.041 786.427 107.041C787.54 107.041 788.36 107.645 788.888 108.852C788.97 108.688 789.075 108.523 789.204 108.359C789.345 108.195 789.532 108.002 789.767 107.779C790.013 107.557 790.323 107.381 790.698 107.252C791.085 107.111 791.501 107.041 791.946 107.041C794.021 107.041 795.058 108.354 795.058 110.979V117.5H792.808V111.049C792.808 110.346 792.708 109.818 792.509 109.467C792.31 109.115 791.958 108.939 791.454 108.939C790.856 108.939 790.37 109.191 789.995 109.695C789.632 110.188 789.45 110.797 789.45 111.523V117.5H787.253V110.996C787.253 109.625 786.796 108.939 785.882 108.939C785.249 108.939 784.757 109.174 784.405 109.643C784.065 110.111 783.896 110.727 783.896 111.488V117.5H781.663ZM802.089 117.5V103.596H804.409V117.5H802.089ZM807.151 117.5V107.357H809.313V108.641H809.331C809.507 108.266 809.829 107.908 810.298 107.568C810.778 107.217 811.394 107.041 812.144 107.041C813.151 107.041 813.954 107.352 814.552 107.973C815.149 108.594 815.448 109.596 815.448 110.979V117.5H813.216V111.277C813.216 109.719 812.688 108.939 811.634 108.939C810.989 108.939 810.45 109.197 810.017 109.713C809.595 110.229 809.384 110.867 809.384 111.629V117.5H807.151ZM817.153 112.438C817.153 110.809 817.587 109.502 818.454 108.518C819.333 107.533 820.464 107.041 821.847 107.041C822.854 107.041 823.704 107.346 824.396 107.955C825.087 108.564 825.521 109.262 825.696 110.047L823.798 110.574C823.657 110.129 823.417 109.748 823.077 109.432C822.737 109.104 822.333 108.939 821.864 108.939C821.103 108.939 820.505 109.273 820.071 109.941C819.649 110.609 819.438 111.441 819.438 112.438C819.438 113.539 819.667 114.395 820.124 115.004C820.581 115.613 821.161 115.918 821.864 115.918C822.38 115.918 822.831 115.742 823.218 115.391C823.616 115.027 823.892 114.617 824.044 114.16L825.942 114.705C825.72 115.525 825.233 116.252 824.483 116.885C823.733 117.506 822.854 117.816 821.847 117.816C820.464 117.816 819.333 117.33 818.454 116.357C817.587 115.373 817.153 114.066 817.153 112.438ZM826.909 112.385C826.909 110.756 827.354 109.461 828.245 108.5C829.147 107.527 830.278 107.041 831.638 107.041C832.974 107.041 834.075 107.527 834.942 108.5C835.81 109.473 836.243 110.738 836.243 112.297C836.243 112.602 836.226 112.9 836.19 113.193H829.159C829.159 113.967 829.388 114.635 829.845 115.197C830.313 115.748 830.952 116.023 831.761 116.023C832.323 116.023 832.815 115.889 833.237 115.619C833.671 115.338 833.999 114.98 834.222 114.547L836.085 115.18C835.757 115.93 835.224 116.557 834.485 117.061C833.747 117.564 832.827 117.816 831.726 117.816C830.308 117.816 829.147 117.324 828.245 116.34C827.354 115.355 826.909 114.037 826.909 112.385ZM829.194 111.629H833.976C833.976 110.855 833.771 110.199 833.36 109.66C832.95 109.109 832.376 108.834 831.638 108.834C830.899 108.834 830.308 109.115 829.862 109.678C829.429 110.229 829.206 110.879 829.194 111.629ZM840.356 112.42C840.356 113.486 840.556 114.336 840.954 114.969C841.364 115.602 841.933 115.918 842.659 115.918C843.351 115.918 843.913 115.613 844.347 115.004C844.78 114.383 844.997 113.521 844.997 112.42C844.997 111.354 844.786 110.51 844.364 109.889C843.954 109.256 843.386 108.939 842.659 108.939C841.944 108.939 841.382 109.262 840.972 109.906C840.562 110.551 840.356 111.389 840.356 112.42ZM838.159 121.648V107.357H840.304V108.676C840.925 107.586 841.815 107.041 842.976 107.041C844.206 107.041 845.226 107.527 846.034 108.5C846.854 109.461 847.265 110.768 847.265 112.42C847.265 113.346 847.136 114.172 846.878 114.898C846.62 115.613 846.274 116.176 845.841 116.586C845.419 116.996 844.962 117.301 844.47 117.5C843.989 117.711 843.491 117.816 842.976 117.816C842.319 117.816 841.769 117.67 841.323 117.377C840.89 117.072 840.573 116.721 840.374 116.322V121.648H838.159ZM848.214 109.256V107.357H849.778V104.352H851.993V107.357H854.313V109.256H851.993V114.248C851.993 114.729 852.087 115.074 852.274 115.285C852.474 115.496 852.772 115.602 853.171 115.602H854.331V117.5H852.89C850.815 117.5 849.778 116.469 849.778 114.406V109.256H848.214ZM857.776 112.438C857.776 113.609 858.017 114.482 858.497 115.057C858.978 115.631 859.54 115.918 860.185 115.918C860.817 115.918 861.374 115.631 861.854 115.057C862.335 114.482 862.575 113.609 862.575 112.438C862.575 111.242 862.335 110.363 861.854 109.801C861.374 109.227 860.817 108.939 860.185 108.939C859.552 108.939 858.989 109.227 858.497 109.801C858.017 110.363 857.776 111.242 857.776 112.438ZM855.491 112.438C855.491 110.926 855.89 109.648 856.687 108.605C857.483 107.562 858.649 107.041 860.185 107.041C861.708 107.041 862.868 107.562 863.665 108.605C864.462 109.648 864.86 110.926 864.86 112.438C864.86 112.906 864.813 113.375 864.72 113.844C864.638 114.312 864.485 114.793 864.263 115.285C864.04 115.766 863.759 116.193 863.419 116.568C863.079 116.932 862.628 117.23 862.065 117.465C861.515 117.699 860.888 117.816 860.185 117.816C859.493 117.816 858.866 117.705 858.304 117.482C857.753 117.248 857.302 116.955 856.95 116.604C856.61 116.24 856.323 115.818 856.089 115.338C855.866 114.846 855.708 114.365 855.614 113.896C855.532 113.416 855.491 112.93 855.491 112.438ZM865.933 115.391L867.532 114.459C868.235 115.49 869.149 116.006 870.274 116.006C870.825 116.006 871.259 115.9 871.575 115.689C871.903 115.467 872.067 115.174 872.067 114.811C872.067 114.518 871.933 114.26 871.663 114.037C871.405 113.814 871.13 113.65 870.837 113.545C870.544 113.428 870.104 113.275 869.519 113.088C869.413 113.053 869.337 113.029 869.29 113.018C868.868 112.877 868.511 112.742 868.218 112.613C867.937 112.473 867.638 112.291 867.321 112.068C867.005 111.834 866.765 111.547 866.601 111.207C866.437 110.855 866.354 110.451 866.354 109.994C866.354 109.104 866.729 108.389 867.479 107.85C868.229 107.311 869.161 107.041 870.274 107.041C871.106 107.041 871.892 107.264 872.63 107.709C873.368 108.143 873.919 108.699 874.282 109.379L872.806 110.275C872.114 109.326 871.276 108.852 870.292 108.852C869.753 108.852 869.337 108.963 869.044 109.186C868.763 109.396 868.622 109.678 868.622 110.029C868.622 110.322 868.745 110.586 868.991 110.82C869.249 111.043 869.513 111.207 869.782 111.312C870.052 111.418 870.433 111.553 870.925 111.717C871.054 111.752 871.147 111.781 871.206 111.805C873.292 112.473 874.335 113.48 874.335 114.828C874.335 115.66 873.983 116.369 873.28 116.955C872.589 117.529 871.604 117.816 870.327 117.816C869.343 117.816 868.464 117.6 867.69 117.166C866.929 116.732 866.343 116.141 865.933 115.391Z" fill="black"/>
<path d="M461.743 30.8887C461.743 33.2318 462.492 35.1139 463.99 36.5352C465.527 37.9564 467.39 38.667 469.579 38.667C471.807 38.667 473.67 37.9372 475.168 36.4775C476.666 35.0179 477.415 33.1549 477.415 30.8887C477.415 28.6224 476.666 26.7594 475.168 25.2998C473.708 23.8018 471.845 23.0527 469.579 23.0527C467.236 23.0527 465.335 23.821 463.875 25.3574C462.454 26.8555 461.743 28.6992 461.743 30.8887ZM455.636 51.9766C455.636 48.9036 456.442 46.4069 458.056 44.4863C459.669 42.5658 461.628 41.2214 463.933 40.4531C459.323 38.5326 457.019 35.2676 457.019 30.6582C457.019 27.4701 458.19 24.7812 460.533 22.5918C462.915 20.4023 465.93 19.3076 469.579 19.3076C473.151 19.3076 476.128 20.3831 478.51 22.5342C480.93 24.6852 482.14 27.3932 482.14 30.6582C482.14 33.1934 481.467 35.2868 480.123 36.9385C478.779 38.5902 477.146 39.7617 475.226 40.4531C477.607 41.1829 479.604 42.5273 481.218 44.4863C482.831 46.4453 483.638 48.9613 483.638 52.0342C483.638 55.6833 482.312 58.6794 479.662 61.0225C477.05 63.3656 473.689 64.5371 469.579 64.5371C465.623 64.5371 462.3 63.404 459.611 61.1377C456.961 58.8714 455.636 55.8177 455.636 51.9766ZM460.36 51.7461C460.36 54.3581 461.225 56.5091 462.953 58.1992C464.72 59.8893 466.929 60.7344 469.579 60.7344C472.229 60.7344 474.438 59.8893 476.205 58.1992C478.01 56.4707 478.913 54.3197 478.913 51.7461C478.913 49.1341 478.01 46.9255 476.205 45.1201C474.4 43.3148 472.191 42.4121 469.579 42.4121C467.006 42.4121 464.816 43.2956 463.011 45.0625C461.244 46.8294 460.36 49.0573 460.36 51.7461ZM487.383 50.0752L507.261 19.7686H511.409V49.96H517.632V53.7627H511.409V64.0762H506.8V53.7627H487.383V50.0752ZM491.877 49.96H506.8V33.4814C506.8 31.0615 506.877 28.7568 507.03 26.5674H506.8L502.939 32.79L491.877 49.96Z" fill="#333333"/>
<path d="M396.061 112.191H400.209L399.031 108.588C398.949 108.33 398.855 108.043 398.75 107.727C398.656 107.41 398.551 107.064 398.434 106.689C398.328 106.303 398.246 106.016 398.188 105.828H398.082C398.047 105.945 397.766 106.865 397.238 108.588L396.061 112.191ZM391.842 117.5L396.869 103.596H399.418L404.428 117.5H401.967L400.824 114.055H395.445L394.303 117.5H391.842ZM404.902 112.385C404.902 110.756 405.348 109.461 406.238 108.5C407.141 107.527 408.271 107.041 409.631 107.041C410.967 107.041 412.068 107.527 412.936 108.5C413.803 109.473 414.236 110.738 414.236 112.297C414.236 112.602 414.219 112.9 414.184 113.193H407.152C407.152 113.967 407.381 114.635 407.838 115.197C408.307 115.748 408.945 116.023 409.754 116.023C410.316 116.023 410.809 115.889 411.23 115.619C411.664 115.338 411.992 114.98 412.215 114.547L414.078 115.18C413.75 115.93 413.217 116.557 412.479 117.061C411.74 117.564 410.82 117.816 409.719 117.816C408.301 117.816 407.141 117.324 406.238 116.34C405.348 115.355 404.902 114.037 404.902 112.385ZM407.188 111.629H411.969C411.969 110.855 411.764 110.199 411.354 109.66C410.943 109.109 410.369 108.834 409.631 108.834C408.893 108.834 408.301 109.115 407.855 109.678C407.422 110.229 407.199 110.879 407.188 111.629ZM416.047 117.5V107.357H418.209V108.641H418.227C418.402 108.266 418.725 107.908 419.193 107.568C419.674 107.217 420.289 107.041 421.039 107.041C422.047 107.041 422.85 107.352 423.447 107.973C424.045 108.594 424.344 109.596 424.344 110.979V117.5H422.111V111.277C422.111 109.719 421.584 108.939 420.529 108.939C419.885 108.939 419.346 109.197 418.912 109.713C418.49 110.229 418.279 110.867 418.279 111.629V117.5H416.047ZM426.049 112.385C426.049 110.756 426.494 109.461 427.385 108.5C428.287 107.527 429.418 107.041 430.777 107.041C432.113 107.041 433.215 107.527 434.082 108.5C434.949 109.473 435.383 110.738 435.383 112.297C435.383 112.602 435.365 112.9 435.33 113.193H428.299C428.299 113.967 428.527 114.635 428.984 115.197C429.453 115.748 430.092 116.023 430.9 116.023C431.463 116.023 431.955 115.889 432.377 115.619C432.811 115.338 433.139 114.98 433.361 114.547L435.225 115.18C434.896 115.93 434.363 116.557 433.625 117.061C432.887 117.564 431.967 117.816 430.865 117.816C429.447 117.816 428.287 117.324 427.385 116.34C426.494 115.355 426.049 114.037 426.049 112.385ZM428.334 111.629H433.115C433.115 110.855 432.91 110.199 432.5 109.66C432.09 109.109 431.516 108.834 430.777 108.834C430.039 108.834 429.447 109.115 429.002 109.678C428.568 110.229 428.346 110.879 428.334 111.629ZM438.846 114.652C438.846 115.027 438.992 115.344 439.285 115.602C439.59 115.848 439.988 115.971 440.48 115.971C441.184 115.971 441.781 115.736 442.273 115.268C442.777 114.799 443.029 114.184 443.029 113.422V112.49C442.49 112.619 441.84 112.742 441.078 112.859C439.59 113.094 438.846 113.691 438.846 114.652ZM436.596 114.846C436.596 112.936 438.014 111.77 440.85 111.348C441.881 111.195 442.607 111.055 443.029 110.926V110.381C443.029 109.889 442.854 109.502 442.502 109.221C442.15 108.939 441.682 108.799 441.096 108.799C439.982 108.799 439.021 109.256 438.213 110.17L436.859 109.01C437.387 108.389 438.014 107.908 438.74 107.568C439.479 107.217 440.252 107.041 441.061 107.041C442.572 107.041 443.65 107.41 444.295 108.148C444.939 108.875 445.262 109.895 445.262 111.207V117.5H443.1V116.234C442.889 116.668 442.52 117.043 441.992 117.359C441.477 117.664 440.867 117.816 440.164 117.816C439.051 117.816 438.178 117.541 437.545 116.99C436.912 116.439 436.596 115.725 436.596 114.846ZM447.547 117.5V107.357H449.709V108.641H449.727C449.902 108.266 450.225 107.908 450.693 107.568C451.174 107.217 451.789 107.041 452.539 107.041C453.547 107.041 454.35 107.352 454.947 107.973C455.545 108.594 455.844 109.596 455.844 110.979V117.5H453.611V111.277C453.611 109.719 453.084 108.939 452.029 108.939C451.385 108.939 450.846 109.197 450.412 109.713C449.99 110.229 449.779 110.867 449.779 111.629V117.5H447.547ZM462.049 110.539C462.049 108.312 462.623 106.549 463.771 105.248C464.92 103.936 466.402 103.279 468.219 103.279C469.391 103.279 470.393 103.602 471.225 104.246C472.068 104.891 472.695 105.688 473.105 106.637L471.119 107.287C470.369 105.939 469.391 105.266 468.184 105.266C467.035 105.266 466.121 105.746 465.441 106.707C464.773 107.656 464.439 108.934 464.439 110.539C464.439 112.168 464.779 113.457 465.459 114.406C466.139 115.355 467.047 115.83 468.184 115.83C468.922 115.83 469.572 115.607 470.135 115.162C470.709 114.717 471.125 114.172 471.383 113.527L473.457 114.178C473.281 114.6 473.053 115.01 472.771 115.408C472.502 115.795 472.156 116.182 471.734 116.568C471.324 116.943 470.814 117.248 470.205 117.482C469.596 117.705 468.934 117.816 468.219 117.816C466.438 117.816 464.961 117.172 463.789 115.883C462.629 114.582 462.049 112.801 462.049 110.539ZM476.762 112.438C476.762 113.609 477.002 114.482 477.482 115.057C477.963 115.631 478.525 115.918 479.17 115.918C479.803 115.918 480.359 115.631 480.84 115.057C481.32 114.482 481.561 113.609 481.561 112.438C481.561 111.242 481.32 110.363 480.84 109.801C480.359 109.227 479.803 108.939 479.17 108.939C478.537 108.939 477.975 109.227 477.482 109.801C477.002 110.363 476.762 111.242 476.762 112.438ZM474.477 112.438C474.477 110.926 474.875 109.648 475.672 108.605C476.469 107.562 477.635 107.041 479.17 107.041C480.693 107.041 481.854 107.562 482.65 108.605C483.447 109.648 483.846 110.926 483.846 112.438C483.846 112.906 483.799 113.375 483.705 113.844C483.623 114.312 483.471 114.793 483.248 115.285C483.025 115.766 482.744 116.193 482.404 116.568C482.064 116.932 481.613 117.23 481.051 117.465C480.5 117.699 479.873 117.816 479.17 117.816C478.479 117.816 477.852 117.705 477.289 117.482C476.738 117.248 476.287 116.955 475.936 116.604C475.596 116.24 475.309 115.818 475.074 115.338C474.852 114.846 474.693 114.365 474.6 113.896C474.518 113.416 474.477 112.93 474.477 112.438ZM485.674 117.5V107.357H487.836V108.641H487.854C488.029 108.266 488.352 107.908 488.82 107.568C489.301 107.217 489.916 107.041 490.666 107.041C491.674 107.041 492.477 107.352 493.074 107.973C493.672 108.594 493.971 109.596 493.971 110.979V117.5H491.738V111.277C491.738 109.719 491.211 108.939 490.156 108.939C489.512 108.939 488.973 109.197 488.539 109.713C488.117 110.229 487.906 110.867 487.906 111.629V117.5H485.674ZM495.676 112.42C495.676 110.756 496.08 109.443 496.889 108.482C497.709 107.521 498.746 107.041 500 107.041C500.598 107.041 501.113 107.188 501.547 107.48C501.992 107.762 502.332 108.096 502.566 108.482V103.139H504.781V117.5H502.637V116.182C502.426 116.627 502.074 117.014 501.582 117.342C501.102 117.658 500.568 117.816 499.982 117.816C499.455 117.816 498.945 117.717 498.453 117.518C497.961 117.318 497.498 117.014 497.064 116.604C496.643 116.193 496.303 115.631 496.045 114.916C495.799 114.189 495.676 113.357 495.676 112.42ZM497.961 112.42C497.961 113.521 498.172 114.383 498.594 115.004C499.027 115.613 499.596 115.918 500.299 115.918C500.979 115.918 501.529 115.607 501.951 114.986C502.385 114.354 502.602 113.498 502.602 112.42C502.602 111.377 502.391 110.539 501.969 109.906C501.559 109.262 501.002 108.939 500.299 108.939C499.561 108.939 498.986 109.256 498.576 109.889C498.166 110.521 497.961 111.365 497.961 112.42ZM507.436 105.846V103.402H509.826V105.846H507.436ZM507.541 117.5V107.357H509.738V117.5H507.541ZM512.375 117.5V107.357H514.537V108.535C514.713 108.195 515.029 107.861 515.486 107.533C515.943 107.205 516.494 107.041 517.139 107.041C518.252 107.041 519.072 107.645 519.6 108.852C519.682 108.688 519.787 108.523 519.916 108.359C520.057 108.195 520.244 108.002 520.479 107.779C520.725 107.557 521.035 107.381 521.41 107.252C521.797 107.111 522.213 107.041 522.658 107.041C524.732 107.041 525.77 108.354 525.77 110.979V117.5H523.52V111.049C523.52 110.346 523.42 109.818 523.221 109.467C523.021 109.115 522.67 108.939 522.166 108.939C521.568 108.939 521.082 109.191 520.707 109.695C520.344 110.188 520.162 110.797 520.162 111.523V117.5H517.965V110.996C517.965 109.625 517.508 108.939 516.594 108.939C515.961 108.939 515.469 109.174 515.117 109.643C514.777 110.111 514.607 110.727 514.607 111.488V117.5H512.375ZM527.475 112.385C527.475 110.756 527.92 109.461 528.811 108.5C529.713 107.527 530.844 107.041 532.203 107.041C533.539 107.041 534.641 107.527 535.508 108.5C536.375 109.473 536.809 110.738 536.809 112.297C536.809 112.602 536.791 112.9 536.756 113.193H529.725C529.725 113.967 529.953 114.635 530.41 115.197C530.879 115.748 531.518 116.023 532.326 116.023C532.889 116.023 533.381 115.889 533.803 115.619C534.236 115.338 534.564 114.98 534.787 114.547L536.65 115.18C536.322 115.93 535.789 116.557 535.051 117.061C534.312 117.564 533.393 117.816 532.291 117.816C530.873 117.816 529.713 117.324 528.811 116.34C527.92 115.355 527.475 114.037 527.475 112.385ZM529.76 111.629H534.541C534.541 110.855 534.336 110.199 533.926 109.66C533.516 109.109 532.941 108.834 532.203 108.834C531.465 108.834 530.873 109.115 530.428 109.678C529.994 110.229 529.771 110.879 529.76 111.629ZM538.619 117.5V107.357H540.781V108.641H540.799C540.975 108.266 541.297 107.908 541.766 107.568C542.246 107.217 542.861 107.041 543.611 107.041C544.619 107.041 545.422 107.352 546.02 107.973C546.617 108.594 546.916 109.596 546.916 110.979V117.5H544.684V111.277C544.684 109.719 544.156 108.939 543.102 108.939C542.457 108.939 541.918 109.197 541.484 109.713C541.062 110.229 540.852 110.867 540.852 111.629V117.5H538.619ZM548.217 109.256V107.357H549.781V104.352H551.996V107.357H554.316V109.256H551.996V114.248C551.996 114.729 552.09 115.074 552.277 115.285C552.477 115.496 552.775 115.602 553.174 115.602H554.334V117.5H552.893C550.818 117.5 549.781 116.469 549.781 114.406V109.256H548.217ZM555.951 113.826V107.357H558.184V113.545C558.184 115.127 558.74 115.918 559.854 115.918C560.521 115.918 561.043 115.637 561.418 115.074C561.793 114.5 561.98 113.82 561.98 113.035V107.357H564.195V117.5H562.051V116.322H562.033C561.869 116.686 561.553 117.025 561.084 117.342C560.627 117.658 560.053 117.816 559.361 117.816C558.951 117.816 558.559 117.752 558.184 117.623C557.82 117.506 557.463 117.312 557.111 117.043C556.76 116.762 556.479 116.346 556.268 115.795C556.057 115.244 555.951 114.588 555.951 113.826ZM566.621 117.5V107.357H568.783V108.535C568.959 108.195 569.275 107.861 569.732 107.533C570.189 107.205 570.74 107.041 571.385 107.041C572.498 107.041 573.318 107.645 573.846 108.852C573.928 108.688 574.033 108.523 574.162 108.359C574.303 108.195 574.49 108.002 574.725 107.779C574.971 107.557 575.281 107.381 575.656 107.252C576.043 107.111 576.459 107.041 576.904 107.041C578.979 107.041 580.016 108.354 580.016 110.979V117.5H577.766V111.049C577.766 110.346 577.666 109.818 577.467 109.467C577.268 109.115 576.916 108.939 576.412 108.939C575.814 108.939 575.328 109.191 574.953 109.695C574.59 110.188 574.408 110.797 574.408 111.523V117.5H572.211V110.996C572.211 109.625 571.754 108.939 570.84 108.939C570.207 108.939 569.715 109.174 569.363 109.643C569.023 110.111 568.854 110.727 568.854 111.488V117.5H566.621Z" fill="black"/>
<path d="M1087.53 30.082C1088.38 26.7402 1089.89 24.109 1092.08 22.1885C1094.31 20.2679 1097.21 19.3076 1100.78 19.3076C1104.47 19.3076 1107.49 20.3639 1109.83 22.4766C1112.17 24.5892 1113.34 27.5085 1113.34 31.2344C1113.34 35.5365 1111.12 39.8193 1106.66 44.083C1101.51 48.9997 1098.27 52.2454 1096.92 53.8203C1095.19 55.8561 1093.98 57.8151 1093.29 59.6973H1113.34V63.5H1087.76C1087.76 62.0404 1088.07 60.5231 1088.68 58.9482C1089.34 57.335 1090.03 55.9521 1090.76 54.7998C1091.49 53.6475 1092.7 52.1686 1094.39 50.3633C1096.08 48.5195 1097.37 47.1751 1098.25 46.3301C1099.17 45.4466 1100.75 43.9678 1102.97 41.8936C1106.74 38.3213 1108.62 34.749 1108.62 31.1768C1108.62 28.6032 1107.89 26.6058 1106.43 25.1846C1105.01 23.7633 1103.09 23.0527 1100.67 23.0527C1098.29 23.0527 1096.33 23.7826 1094.79 25.2422C1093.26 26.7018 1092.18 28.68 1091.56 31.1768L1087.53 30.082ZM1118.7 50.0752L1138.58 19.7686H1142.73V49.96H1148.95V53.7627H1142.73V64.0762H1138.12V53.7627H1118.7V50.0752ZM1123.2 49.96H1138.12V33.4814C1138.12 31.0615 1138.2 28.7568 1138.35 26.5674H1138.12L1134.26 32.79L1123.2 49.96ZM1155.06 63.5V18.7314H1159.44V37.5146H1159.55C1160.32 35.863 1161.55 34.4417 1163.24 33.251C1164.97 32.0602 1166.93 31.4648 1169.12 31.4648C1175.8 31.4648 1179.14 35.4596 1179.14 43.4492V63.5H1174.76V44.1982C1174.76 38.2061 1172.61 35.21 1168.31 35.21C1165.93 35.21 1163.86 36.1895 1162.09 38.1484C1160.32 40.1074 1159.44 42.4313 1159.44 45.1201V63.5H1155.06Z" fill="#333333"/>
<path d="M1086.01 112.736V104.334H1087.42V112.701C1087.42 114.014 1087.72 114.992 1088.31 115.637C1088.92 116.281 1089.7 116.604 1090.65 116.604C1091.62 116.604 1092.41 116.275 1093.01 115.619C1093.62 114.951 1093.92 113.979 1093.92 112.701V104.334H1095.33V112.736C1095.33 114.33 1094.92 115.578 1094.12 116.48C1093.31 117.371 1092.15 117.816 1090.65 117.816C1089.19 117.816 1088.04 117.377 1087.22 116.498C1086.42 115.619 1086.01 114.365 1086.01 112.736ZM1098.72 117.5V103.842H1100.06V117.5H1098.72ZM1103.29 117.5V103.842H1104.63V117.5H1103.29ZM1108.35 115.074C1108.35 115.52 1108.54 115.9 1108.92 116.217C1109.29 116.521 1109.81 116.674 1110.46 116.674C1111.29 116.674 1112 116.404 1112.59 115.865C1113.19 115.326 1113.49 114.641 1113.49 113.809V112.49C1112.97 112.619 1112.15 112.771 1111.03 112.947C1110.11 113.111 1109.44 113.363 1109 113.703C1108.57 114.043 1108.35 114.5 1108.35 115.074ZM1106.98 115.18C1106.98 113.422 1108.34 112.332 1111.06 111.91C1112.28 111.711 1113.09 111.547 1113.49 111.418V110.873C1113.49 110.287 1113.28 109.801 1112.85 109.414C1112.43 109.027 1111.83 108.834 1111.06 108.834C1110.5 108.834 1109.95 108.969 1109.43 109.238C1108.91 109.496 1108.47 109.848 1108.11 110.293L1107.23 109.555C1107.7 109.016 1108.26 108.576 1108.92 108.236C1109.58 107.896 1110.29 107.727 1111.03 107.727C1113.56 107.727 1114.82 108.963 1114.82 111.436V117.5H1113.52V115.953C1113.33 116.457 1112.95 116.896 1112.36 117.271C1111.78 117.635 1111.08 117.816 1110.29 117.816C1109.24 117.816 1108.43 117.57 1107.84 117.078C1107.27 116.586 1106.98 115.953 1106.98 115.18ZM1117.55 117.5V108.043H1118.88V109.467C1119.05 109.033 1119.36 108.635 1119.81 108.271C1120.27 107.908 1120.85 107.727 1121.55 107.727C1122.25 107.727 1122.77 107.926 1123.14 108.324C1123.5 108.711 1123.78 109.215 1123.98 109.836C1124.04 109.684 1124.13 109.508 1124.26 109.309C1124.39 109.109 1124.57 108.881 1124.81 108.623C1125.04 108.365 1125.35 108.154 1125.74 107.99C1126.14 107.814 1126.57 107.727 1127.04 107.727C1128.87 107.727 1129.78 108.945 1129.78 111.383V117.5H1128.41V111.488C1128.41 110.621 1128.29 109.971 1128.06 109.537C1127.82 109.092 1127.38 108.869 1126.72 108.869C1126.04 108.869 1125.47 109.156 1125.02 109.73C1124.56 110.293 1124.33 111.008 1124.33 111.875V117.5H1123V111.471C1123 109.736 1122.42 108.869 1121.27 108.869C1120.56 108.869 1119.98 109.139 1119.55 109.678C1119.13 110.217 1118.92 110.92 1118.92 111.787V117.5H1117.55ZM1131.86 112.771C1131.86 111.271 1132.24 110.059 1133 109.133C1133.76 108.195 1134.79 107.727 1136.07 107.727C1136.92 107.727 1137.64 107.973 1138.24 108.465C1138.85 108.945 1139.25 109.52 1139.45 110.188L1138.29 110.521C1138.11 110.053 1137.83 109.66 1137.43 109.344C1137.04 109.027 1136.59 108.869 1136.07 108.869C1135.21 108.869 1134.52 109.238 1134 109.977C1133.48 110.715 1133.23 111.646 1133.23 112.771C1133.23 113.967 1133.5 114.916 1134.04 115.619C1134.57 116.322 1135.25 116.674 1136.07 116.674C1136.62 116.674 1137.12 116.498 1137.57 116.146C1138.03 115.783 1138.35 115.367 1138.54 114.898L1139.7 115.268C1139.45 115.971 1139 116.574 1138.34 117.078C1137.7 117.57 1136.94 117.816 1136.07 117.816C1134.82 117.816 1133.8 117.359 1133.02 116.445C1132.24 115.531 1131.86 114.307 1131.86 112.771ZM1142.26 112.771C1142.26 113.967 1142.54 114.916 1143.09 115.619C1143.64 116.322 1144.32 116.674 1145.14 116.674C1145.95 116.674 1146.63 116.322 1147.18 115.619C1147.75 114.916 1148.03 113.967 1148.03 112.771C1148.03 111.553 1147.75 110.598 1147.18 109.906C1146.62 109.215 1145.94 108.869 1145.14 108.869C1144.34 108.869 1143.65 109.215 1143.09 109.906C1142.54 110.598 1142.26 111.553 1142.26 112.771ZM1140.89 112.771C1140.89 111.33 1141.26 110.129 1142 109.168C1142.75 108.207 1143.8 107.727 1145.14 107.727C1146.48 107.727 1147.52 108.207 1148.27 109.168C1149.02 110.129 1149.4 111.33 1149.4 112.771C1149.4 113.381 1149.32 113.973 1149.15 114.547C1149 115.121 1148.76 115.66 1148.43 116.164C1148.12 116.656 1147.67 117.055 1147.1 117.359C1146.53 117.664 1145.88 117.816 1145.14 117.816C1144.42 117.816 1143.77 117.67 1143.19 117.377C1142.63 117.072 1142.19 116.674 1141.86 116.182C1141.54 115.678 1141.3 115.139 1141.14 114.564C1140.97 113.99 1140.89 113.393 1140.89 112.771ZM1151.58 117.5V108.043H1152.88V109.414C1153.07 108.992 1153.38 108.605 1153.81 108.254C1154.24 107.902 1154.8 107.727 1155.48 107.727C1155.98 107.727 1156.43 107.809 1156.82 107.973V109.203C1156.39 109.039 1155.95 108.957 1155.48 108.957C1154.68 108.957 1154.06 109.256 1153.62 109.854C1153.17 110.451 1152.95 111.242 1152.95 112.227V117.5H1151.58ZM1159.61 112.754C1159.61 113.926 1159.85 114.875 1160.33 115.602C1160.81 116.316 1161.47 116.674 1162.32 116.674C1163.12 116.674 1163.78 116.322 1164.3 115.619C1164.83 114.916 1165.1 113.961 1165.1 112.754C1165.1 111.617 1164.84 110.686 1164.34 109.959C1163.85 109.232 1163.17 108.869 1162.32 108.869C1161.52 108.869 1160.87 109.238 1160.37 109.977C1159.86 110.703 1159.61 111.629 1159.61 112.754ZM1158.28 121.631V108.043H1159.58V109.748C1159.85 109.139 1160.23 108.652 1160.74 108.289C1161.25 107.914 1161.84 107.727 1162.49 107.727C1163.64 107.727 1164.59 108.184 1165.34 109.098C1166.09 110.012 1166.47 111.23 1166.47 112.754C1166.47 114.383 1166.07 115.637 1165.29 116.516C1164.5 117.383 1163.57 117.816 1162.49 117.816C1161.79 117.816 1161.19 117.635 1160.7 117.271C1160.21 116.896 1159.85 116.428 1159.61 115.865V121.631H1158.28ZM1168.01 112.701C1168.01 111.225 1168.41 110.029 1169.21 109.115C1170.01 108.189 1171.04 107.727 1172.3 107.727C1173.59 107.727 1174.61 108.178 1175.34 109.08C1176.08 109.971 1176.45 111.113 1176.45 112.508C1176.45 112.672 1176.44 112.906 1176.42 113.211H1169.38C1169.38 114.16 1169.65 114.975 1170.18 115.654C1170.7 116.334 1171.44 116.674 1172.37 116.674C1172.98 116.674 1173.52 116.533 1173.99 116.252C1174.46 115.959 1174.82 115.572 1175.08 115.092L1176.24 115.443C1175.95 116.135 1175.47 116.703 1174.82 117.148C1174.16 117.594 1173.35 117.816 1172.37 117.816C1171.06 117.816 1170.01 117.348 1169.21 116.41C1168.41 115.473 1168.01 114.236 1168.01 112.701ZM1169.42 112.174H1175.08C1175.08 111.248 1174.83 110.469 1174.32 109.836C1173.82 109.191 1173.15 108.869 1172.3 108.869C1171.45 108.869 1170.76 109.197 1170.23 109.854C1169.71 110.51 1169.44 111.283 1169.42 112.174ZM1178.6 117.5V108.043H1179.9V109.414C1180.08 108.992 1180.39 108.605 1180.83 108.254C1181.26 107.902 1181.82 107.727 1182.5 107.727C1183 107.727 1183.45 107.809 1183.83 107.973V109.203C1183.41 109.039 1182.97 108.957 1182.5 108.957C1181.7 108.957 1181.08 109.256 1180.63 109.854C1180.19 110.451 1179.97 111.242 1179.97 112.227V117.5H1178.6Z" fill="black"/>
</svg>
